<mxfile host="65bd71144e">
    <diagram id="HVHUL9Sx2s3TYnRYgcoA" name="Page-1">
        <mxGraphModel dx="2936" dy="2264" grid="1" gridSize="10" guides="1" tooltips="1" connect="1" arrows="1" fold="1" page="1" pageScale="1" pageWidth="827" pageHeight="1169" math="0" shadow="0">
            <root>
                <mxCell id="0"/>
                <mxCell id="1" parent="0"/>
                <mxCell id="7" value="" style="edgeStyle=none;shape=flexArrow;html=1;" parent="1" source="2" target="6" edge="1">
                    <mxGeometry relative="1" as="geometry"/>
                </mxCell>
                <mxCell id="2" value="num = random.radiant(0,100)" style="whiteSpace=wrap;html=1;" parent="1" vertex="1">
                    <mxGeometry x="280" y="160" width="160" height="80" as="geometry"/>
                </mxCell>
                <mxCell id="5" value="" style="edgeStyle=none;shape=flexArrow;html=1;" parent="1" source="4" target="2" edge="1">
                    <mxGeometry relative="1" as="geometry"/>
                </mxCell>
                <mxCell id="4" value="Import random" style="whiteSpace=wrap;html=1;" parent="1" vertex="1">
                    <mxGeometry x="280" width="160" height="80" as="geometry"/>
                </mxCell>
                <mxCell id="6" value="Guess1 == in(imput(&quot;mete un numero de 1 a 99&quot;))&amp;nbsp;" style="rhombus;whiteSpace=wrap;html=1;" parent="1" vertex="1">
                    <mxGeometry x="476.25" y="310" width="130" height="200" as="geometry"/>
                </mxCell>
                <mxCell id="8" value="If(1&amp;lt;= Guess1 &amp;lt;= 99&lt;br&gt;Continue" style="rounded=1;whiteSpace=wrap;html=1;" parent="1" vertex="1">
                    <mxGeometry x="914.1700000000001" y="576.25" width="150" height="80" as="geometry"/>
                </mxCell>
                <mxCell id="10" value="" style="strokeWidth=2;html=1;shape=mxgraph.flowchart.annotation_2;align=left;labelPosition=right;pointerEvents=1;rotation=90;" parent="1" vertex="1">
                    <mxGeometry x="514.38" y="88.13" width="52.5" height="916.25" as="geometry"/>
                </mxCell>
                <mxCell id="13" value="&amp;nbsp;If(Guess1&amp;lt;1)&lt;br&gt;Print(&quot;num no válido, empieza de nuevo)&lt;br&gt;Break" style="whiteSpace=wrap;html=1;" parent="1" vertex="1">
                    <mxGeometry x="210" y="610" width="120" height="60" as="geometry"/>
                </mxCell>
                <mxCell id="18" value="&lt;span&gt;&amp;nbsp;If(100&amp;lt;Guess1)&lt;/span&gt;&lt;br&gt;&lt;span&gt;Print(&quot;num no válido, empieza de nuevo)&lt;br&gt;Break&lt;br&gt;&lt;/span&gt;" style="rounded=0;whiteSpace=wrap;html=1;" parent="1" vertex="1">
                    <mxGeometry x="380" y="610" width="120" height="60" as="geometry"/>
                </mxCell>
                <mxCell id="20" value="If(Guess1 != int)&lt;br&gt;Print(&quot;num no válido, empieza de nuevo&quot;)&lt;br&gt;Break" style="rounded=1;whiteSpace=wrap;html=1;" parent="1" vertex="1">
                    <mxGeometry x="10" y="576.25" width="150" height="80" as="geometry"/>
                </mxCell>
                <mxCell id="23" value="" style="strokeWidth=2;html=1;shape=mxgraph.flowchart.annotation_1;align=left;pointerEvents=1;rotation=90;" parent="1" vertex="1">
                    <mxGeometry x="331.25" y="483.75" width="50" height="172.5" as="geometry"/>
                </mxCell>
                <mxCell id="24" value="" style="strokeWidth=2;html=1;shape=mxgraph.flowchart.annotation_2;align=left;labelPosition=right;pointerEvents=1;rotation=90;" vertex="1" parent="1">
                    <mxGeometry x="960" y="196.58" width="68.35" height="987.69" as="geometry"/>
                </mxCell>
                <mxCell id="25" value="If(num&amp;lt;=Guess1&amp;lt;=99)&lt;br&gt;Print(&quot;El número está entre 1 y&quot; Guess1)&amp;nbsp;" style="rounded=1;whiteSpace=wrap;html=1;" vertex="1" parent="1">
                    <mxGeometry x="440" y="730" width="120" height="60" as="geometry"/>
                </mxCell>
                <mxCell id="34" value="If(Guess1= num)&lt;br&gt;Print(Felicidades, lo adivinastes)&amp;nbsp;" style="rounded=1;whiteSpace=wrap;html=1;" vertex="1" parent="1">
                    <mxGeometry x="934.1800000000001" y="720" width="120" height="60" as="geometry"/>
                </mxCell>
                <mxCell id="35" value="If(1 &amp;lt;= Guess1 &amp;lt;= num)&lt;br&gt;Print(&quot;El número está entre 1 y&quot; Guess1)&amp;nbsp;" style="rounded=1;whiteSpace=wrap;html=1;" vertex="1" parent="1">
                    <mxGeometry x="1430" y="730" width="130" height="60" as="geometry"/>
                </mxCell>
                <mxCell id="36" value="" style="shape=flexArrow;endArrow=classic;html=1;" edge="1" parent="1">
                    <mxGeometry width="50" height="50" relative="1" as="geometry">
                        <mxPoint x="499" y="790" as="sourcePoint"/>
                        <mxPoint x="499" y="850" as="targetPoint"/>
                    </mxGeometry>
                </mxCell>
                <mxCell id="37" value="" style="shape=flexArrow;endArrow=classic;html=1;" edge="1" parent="1">
                    <mxGeometry width="50" height="50" relative="1" as="geometry">
                        <mxPoint x="1484.5" y="790" as="sourcePoint"/>
                        <mxPoint x="1484.5" y="850" as="targetPoint"/>
                        <Array as="points">
                            <mxPoint x="1485" y="820"/>
                        </Array>
                    </mxGeometry>
                </mxCell>
                <mxCell id="39" value="Guess2 == in(imput(&quot;mete un numero de 1 a&quot; Guess1))&amp;nbsp;" style="rhombus;whiteSpace=wrap;html=1;" vertex="1" parent="1">
                    <mxGeometry x="435" y="850" width="130" height="200" as="geometry"/>
                </mxCell>
                <mxCell id="40" value="Guess1 == in(imput(&quot;mete un numero de 1 a 99&quot;))&amp;nbsp;" style="rhombus;whiteSpace=wrap;html=1;" vertex="1" parent="1">
                    <mxGeometry x="1420" y="850" width="130" height="200" as="geometry"/>
                </mxCell>
                <mxCell id="137" style="edgeStyle=none;shape=flexArrow;html=1;exitX=0.5;exitY=1;exitDx=0;exitDy=0;entryX=1;entryY=0.5;entryDx=0;entryDy=0;entryPerimeter=0;" edge="1" parent="1" source="41" target="80">
                    <mxGeometry relative="1" as="geometry"/>
                </mxCell>
                <mxCell id="41" value="If(1&amp;lt;= Guess2 &amp;lt;= Guess1&lt;br&gt;Continue" style="rounded=1;whiteSpace=wrap;html=1;" vertex="1" parent="1">
                    <mxGeometry x="700" y="1110" width="150" height="80" as="geometry"/>
                </mxCell>
                <mxCell id="42" value="" style="strokeWidth=2;html=1;shape=mxgraph.flowchart.annotation_2;align=left;labelPosition=right;pointerEvents=1;rotation=90;" vertex="1" parent="1">
                    <mxGeometry x="476.25" y="800" width="52.5" height="560" as="geometry"/>
                </mxCell>
                <mxCell id="43" value="&amp;nbsp;If(Guess2&amp;lt;1)&lt;br&gt;Print(&quot;num no válido, empieza de nuevo)&lt;br&gt;Break" style="whiteSpace=wrap;html=1;" vertex="1" parent="1">
                    <mxGeometry x="350" y="1143.75" width="120" height="60" as="geometry"/>
                </mxCell>
                <mxCell id="44" value="&lt;span&gt;&amp;nbsp;If(Guess1&amp;lt;Guess2)&lt;/span&gt;&lt;br&gt;&lt;span&gt;Print(&quot;num no válido, empieza de nuevo)&lt;br&gt;Break&lt;br&gt;&lt;/span&gt;" style="rounded=0;whiteSpace=wrap;html=1;" vertex="1" parent="1">
                    <mxGeometry x="520" y="1143.75" width="120" height="60" as="geometry"/>
                </mxCell>
                <mxCell id="45" value="If(Guess2 != int)&lt;br&gt;Print(&quot;num no válido, empieza de nuevo&quot;)&lt;br&gt;Break" style="rounded=1;whiteSpace=wrap;html=1;" vertex="1" parent="1">
                    <mxGeometry x="150" y="1110" width="150" height="80" as="geometry"/>
                </mxCell>
                <mxCell id="46" value="" style="strokeWidth=2;html=1;shape=mxgraph.flowchart.annotation_1;align=left;pointerEvents=1;rotation=90;" vertex="1" parent="1">
                    <mxGeometry x="471.25" y="1017.5" width="50" height="172.5" as="geometry"/>
                </mxCell>
                <mxCell id="48" value="If(Guess1&amp;lt;= Guess2 &amp;lt;= 99&lt;br&gt;Continue" style="rounded=1;whiteSpace=wrap;html=1;" vertex="1" parent="1">
                    <mxGeometry x="2339" y="1104.27" width="150" height="80" as="geometry"/>
                </mxCell>
                <mxCell id="49" value="&amp;nbsp;If(Guess2&amp;lt;Guess1)&lt;br&gt;Print(&quot;num no válido, empieza de nuevo)&lt;br&gt;Break" style="whiteSpace=wrap;html=1;" vertex="1" parent="1">
                    <mxGeometry x="1335" y="1116.25" width="120" height="60" as="geometry"/>
                </mxCell>
                <mxCell id="50" value="&lt;span&gt;&amp;nbsp;If(100&amp;lt;Guess2)&lt;/span&gt;&lt;br&gt;&lt;span&gt;Print(&quot;num no válido, empieza de nuevo)&lt;br&gt;Break&lt;br&gt;&lt;/span&gt;" style="rounded=0;whiteSpace=wrap;html=1;" vertex="1" parent="1">
                    <mxGeometry x="1505" y="1116.25" width="120" height="60" as="geometry"/>
                </mxCell>
                <mxCell id="51" value="If(Guess2 != int)&lt;br&gt;Print(&quot;num no válido, empieza de nuevo&quot;)&lt;br&gt;Break" style="rounded=1;whiteSpace=wrap;html=1;" vertex="1" parent="1">
                    <mxGeometry x="1140" y="1104.27" width="150" height="80" as="geometry"/>
                </mxCell>
                <mxCell id="52" value="" style="strokeWidth=2;html=1;shape=mxgraph.flowchart.annotation_1;align=left;pointerEvents=1;rotation=90;" vertex="1" parent="1">
                    <mxGeometry x="1456.25" y="990" width="50" height="172.5" as="geometry"/>
                </mxCell>
                <mxCell id="58" value="" style="strokeWidth=2;html=1;shape=mxgraph.flowchart.annotation_1;align=left;pointerEvents=1;rotation=90;" vertex="1" parent="1">
                    <mxGeometry x="1782.2" y="476.57" width="50" height="1199.38" as="geometry"/>
                </mxCell>
                <mxCell id="80" value="" style="strokeWidth=2;html=1;shape=mxgraph.flowchart.annotation_2;align=left;labelPosition=right;pointerEvents=1;rotation=90;" vertex="1" parent="1">
                    <mxGeometry x="740.82" y="830" width="68.35" height="830" as="geometry"/>
                </mxCell>
                <mxCell id="81" value="If(1 &amp;lt;= num &amp;lt;= Guess2)&lt;br&gt;Print(&quot;El número está entre 1 y&quot; Guess2)&amp;nbsp;" style="rounded=1;whiteSpace=wrap;html=1;" vertex="1" parent="1">
                    <mxGeometry x="286.25" y="1293.42" width="157.5" height="60" as="geometry"/>
                </mxCell>
                <mxCell id="83" value="If(Guess2= num)&lt;br&gt;Print(Felicidades, lo adivinastes)&amp;nbsp;" style="rounded=1;whiteSpace=wrap;html=1;" vertex="1" parent="1">
                    <mxGeometry x="715.0000000000001" y="1293.42" width="120" height="60" as="geometry"/>
                </mxCell>
                <mxCell id="85" value="" style="shape=flexArrow;endArrow=classic;html=1;" edge="1" parent="1">
                    <mxGeometry width="50" height="50" relative="1" as="geometry">
                        <mxPoint x="364" y="1353.42" as="sourcePoint"/>
                        <mxPoint x="364" y="1413.42" as="targetPoint"/>
                    </mxGeometry>
                </mxCell>
                <mxCell id="87" value="Guess3 == in(imput(&quot;mete un numero de 1 a&quot; Guess1))&amp;nbsp;" style="rhombus;whiteSpace=wrap;html=1;" vertex="1" parent="1">
                    <mxGeometry x="300" y="1413.42" width="130" height="200" as="geometry"/>
                </mxCell>
                <mxCell id="89" value="If(1&amp;lt;= Guess3 &amp;lt;= Guess2)&lt;br&gt;Continue" style="rounded=1;whiteSpace=wrap;html=1;" vertex="1" parent="1">
                    <mxGeometry x="565" y="1673.42" width="150" height="80" as="geometry"/>
                </mxCell>
                <mxCell id="90" value="" style="strokeWidth=2;html=1;shape=mxgraph.flowchart.annotation_2;align=left;labelPosition=right;pointerEvents=1;rotation=90;" vertex="1" parent="1">
                    <mxGeometry x="341.25" y="1363.42" width="52.5" height="560" as="geometry"/>
                </mxCell>
                <mxCell id="91" value="&amp;nbsp;If(Guess3&amp;lt;1)&lt;br&gt;Print(&quot;num no válido, empieza de nuevo)&lt;br&gt;Break" style="whiteSpace=wrap;html=1;" vertex="1" parent="1">
                    <mxGeometry x="215" y="1707.17" width="120" height="60" as="geometry"/>
                </mxCell>
                <mxCell id="92" value="&lt;span&gt;&amp;nbsp;If(Guess2&amp;lt;Guess3)&lt;/span&gt;&lt;br&gt;&lt;span&gt;Print(&quot;num no válido, empieza de nuevo)&lt;br&gt;Break&lt;br&gt;&lt;/span&gt;" style="rounded=0;whiteSpace=wrap;html=1;" vertex="1" parent="1">
                    <mxGeometry x="385" y="1707.17" width="120" height="60" as="geometry"/>
                </mxCell>
                <mxCell id="93" value="If(Guess3 != int)&lt;br&gt;Print(&quot;num no válido, empieza de nuevo&quot;)&lt;br&gt;Break" style="rounded=1;whiteSpace=wrap;html=1;" vertex="1" parent="1">
                    <mxGeometry x="15" y="1673.42" width="150" height="80" as="geometry"/>
                </mxCell>
                <mxCell id="94" value="" style="strokeWidth=2;html=1;shape=mxgraph.flowchart.annotation_1;align=left;pointerEvents=1;rotation=90;" vertex="1" parent="1">
                    <mxGeometry x="336.25" y="1580.92" width="50" height="172.5" as="geometry"/>
                </mxCell>
                <mxCell id="125" style="edgeStyle=none;shape=flexArrow;html=1;exitX=0;exitY=0.5;exitDx=0;exitDy=0;exitPerimeter=0;entryX=1;entryY=0.5;entryDx=0;entryDy=0;entryPerimeter=0;" edge="1" parent="1" source="24" target="24">
                    <mxGeometry relative="1" as="geometry"/>
                </mxCell>
                <mxCell id="128" value="If(Guess2&amp;lt;= num &amp;lt;= Guess1)&lt;br&gt;Print(&quot;El número está entre 1 y&quot; Guess2)&amp;nbsp;" style="rounded=1;whiteSpace=wrap;html=1;" vertex="1" parent="1">
                    <mxGeometry x="1086.88" y="1293.42" width="188.75" height="60" as="geometry"/>
                </mxCell>
                <mxCell id="129" value="" style="shape=flexArrow;endArrow=classic;html=1;" edge="1" parent="1">
                    <mxGeometry width="50" height="50" relative="1" as="geometry">
                        <mxPoint x="1184" y="1353.42" as="sourcePoint"/>
                        <mxPoint x="1184" y="1413.42" as="targetPoint"/>
                    </mxGeometry>
                </mxCell>
                <mxCell id="130" value="Guess3 == in(imput(&quot;mete un numero de &quot;Guess2 &quot;a&quot; Guess1))&amp;nbsp;" style="rhombus;whiteSpace=wrap;html=1;" vertex="1" parent="1">
                    <mxGeometry x="1120" y="1413.42" width="130" height="200" as="geometry"/>
                </mxCell>
                <mxCell id="131" value="If(Guess2 &amp;lt;= Guess3&amp;lt;= Guess1)&lt;br&gt;Continue" style="rounded=1;whiteSpace=wrap;html=1;" vertex="1" parent="1">
                    <mxGeometry x="1385" y="1673.42" width="180" height="80" as="geometry"/>
                </mxCell>
                <mxCell id="132" value="" style="strokeWidth=2;html=1;shape=mxgraph.flowchart.annotation_2;align=left;labelPosition=right;pointerEvents=1;rotation=90;" vertex="1" parent="1">
                    <mxGeometry x="1161.25" y="1363.42" width="52.5" height="560" as="geometry"/>
                </mxCell>
                <mxCell id="133" value="&amp;nbsp;If(Guess3 &amp;lt; Guess2)&lt;br&gt;Print(&quot;num no válido, empieza de nuevo)&lt;br&gt;Break" style="whiteSpace=wrap;html=1;" vertex="1" parent="1">
                    <mxGeometry x="1035" y="1707.17" width="120" height="60" as="geometry"/>
                </mxCell>
                <mxCell id="134" value="&lt;span&gt;&amp;nbsp;If(Guess1&amp;lt;Guess3)&lt;/span&gt;&lt;br&gt;&lt;span&gt;Print(&quot;num no válido, empieza de nuevo)&lt;br&gt;Break&lt;br&gt;&lt;/span&gt;" style="rounded=0;whiteSpace=wrap;html=1;" vertex="1" parent="1">
                    <mxGeometry x="1205" y="1707.17" width="120" height="60" as="geometry"/>
                </mxCell>
                <mxCell id="135" value="If(Guess3 != int)&lt;br&gt;Print(&quot;num no válido, empieza de nuevo&quot;)&lt;br&gt;Break" style="rounded=1;whiteSpace=wrap;html=1;" vertex="1" parent="1">
                    <mxGeometry x="835" y="1673.42" width="150" height="80" as="geometry"/>
                </mxCell>
                <mxCell id="136" value="" style="strokeWidth=2;html=1;shape=mxgraph.flowchart.annotation_1;align=left;pointerEvents=1;rotation=90;" vertex="1" parent="1">
                    <mxGeometry x="1156.25" y="1580.92" width="50" height="172.5" as="geometry"/>
                </mxCell>
                <mxCell id="138" style="edgeStyle=none;shape=flexArrow;html=1;exitX=0.5;exitY=1;exitDx=0;exitDy=0;entryX=1;entryY=0.5;entryDx=0;entryDy=0;entryPerimeter=0;" edge="1" target="139" parent="1">
                    <mxGeometry relative="1" as="geometry">
                        <mxPoint x="2414" y="1200" as="sourcePoint"/>
                    </mxGeometry>
                </mxCell>
                <mxCell id="139" value="" style="strokeWidth=2;html=1;shape=mxgraph.flowchart.annotation_2;align=left;labelPosition=right;pointerEvents=1;rotation=90;" vertex="1" parent="1">
                    <mxGeometry x="2379.82" y="840" width="68.35" height="830" as="geometry"/>
                </mxCell>
                <mxCell id="140" value="If(Guess1 &amp;lt;= num &amp;lt;= Guess2)&lt;br&gt;Print(&quot;El número está entre&quot; Guess1 &quot;y&quot; Guess2)&amp;nbsp;" style="rounded=1;whiteSpace=wrap;html=1;" vertex="1" parent="1">
                    <mxGeometry x="1925.25" y="1303.42" width="164.75" height="60" as="geometry"/>
                </mxCell>
                <mxCell id="141" value="If(Guess2= num)&lt;br&gt;Print(Felicidades, lo adivinastes)&amp;nbsp;" style="rounded=1;whiteSpace=wrap;html=1;" vertex="1" parent="1">
                    <mxGeometry x="2354" y="1303.42" width="120" height="60" as="geometry"/>
                </mxCell>
                <mxCell id="142" value="" style="shape=flexArrow;endArrow=classic;html=1;" edge="1" parent="1">
                    <mxGeometry width="50" height="50" relative="1" as="geometry">
                        <mxPoint x="2003" y="1363.42" as="sourcePoint"/>
                        <mxPoint x="2003" y="1423.42" as="targetPoint"/>
                    </mxGeometry>
                </mxCell>
                <mxCell id="143" value="Guess3 == in(imput(&quot;mete un numero de&quot; Guess1 &quot;a&quot; Guess2))&amp;nbsp;" style="rhombus;whiteSpace=wrap;html=1;" vertex="1" parent="1">
                    <mxGeometry x="1939" y="1423.42" width="130" height="200" as="geometry"/>
                </mxCell>
                <mxCell id="144" value="If(Guess1&amp;lt;= Guess3 &amp;lt;=&amp;nbsp; Guess2)&lt;br&gt;Continue" style="rounded=1;whiteSpace=wrap;html=1;" vertex="1" parent="1">
                    <mxGeometry x="2180" y="1683.42" width="186" height="80" as="geometry"/>
                </mxCell>
                <mxCell id="145" value="" style="strokeWidth=2;html=1;shape=mxgraph.flowchart.annotation_2;align=left;labelPosition=right;pointerEvents=1;rotation=90;" vertex="1" parent="1">
                    <mxGeometry x="1980.25" y="1373.42" width="52.5" height="560" as="geometry"/>
                </mxCell>
                <mxCell id="146" value="&amp;nbsp;If(Guess3&amp;lt; Guess1)&lt;br&gt;Print(&quot;num no válido, empieza de nuevo)&lt;br&gt;Break" style="whiteSpace=wrap;html=1;" vertex="1" parent="1">
                    <mxGeometry x="1854" y="1717.17" width="120" height="60" as="geometry"/>
                </mxCell>
                <mxCell id="147" value="&lt;span&gt;&amp;nbsp;If(Guess2 &amp;lt; Guess3)&lt;/span&gt;&lt;br&gt;&lt;span&gt;Print(&quot;num no válido, empieza de nuevo)&lt;br&gt;Break&lt;br&gt;&lt;/span&gt;" style="rounded=0;whiteSpace=wrap;html=1;" vertex="1" parent="1">
                    <mxGeometry x="2024" y="1717.17" width="120" height="60" as="geometry"/>
                </mxCell>
                <mxCell id="148" value="If(Guess3 != int)&lt;br&gt;Print(&quot;num no válido, empieza de nuevo&quot;)&lt;br&gt;Break" style="rounded=1;whiteSpace=wrap;html=1;" vertex="1" parent="1">
                    <mxGeometry x="1654" y="1683.42" width="150" height="80" as="geometry"/>
                </mxCell>
                <mxCell id="149" value="" style="strokeWidth=2;html=1;shape=mxgraph.flowchart.annotation_1;align=left;pointerEvents=1;rotation=90;" vertex="1" parent="1">
                    <mxGeometry x="1975.25" y="1590.92" width="50" height="172.5" as="geometry"/>
                </mxCell>
                <mxCell id="150" value="If(Guess2&amp;lt;= num &amp;lt;= 99)&lt;br&gt;Print(&quot;El número está entre&quot; Guess2 &quot;y 99&quot;)&amp;nbsp;" style="rounded=1;whiteSpace=wrap;html=1;" vertex="1" parent="1">
                    <mxGeometry x="2725.88" y="1303.42" width="188.75" height="60" as="geometry"/>
                </mxCell>
                <mxCell id="151" value="" style="shape=flexArrow;endArrow=classic;html=1;" edge="1" parent="1">
                    <mxGeometry width="50" height="50" relative="1" as="geometry">
                        <mxPoint x="2823" y="1363.42" as="sourcePoint"/>
                        <mxPoint x="2823" y="1423.42" as="targetPoint"/>
                    </mxGeometry>
                </mxCell>
                <mxCell id="152" value="Guess3 == in(imput(&quot;mete un numero de &quot;Guess2 &quot;a&quot; Guess1))&amp;nbsp;" style="rhombus;whiteSpace=wrap;html=1;" vertex="1" parent="1">
                    <mxGeometry x="2759" y="1423.42" width="130" height="200" as="geometry"/>
                </mxCell>
                <mxCell id="153" value="If(Guess2 &amp;lt;= Guess3&amp;lt;= 99)&lt;br&gt;Continue" style="rounded=1;whiteSpace=wrap;html=1;" vertex="1" parent="1">
                    <mxGeometry x="3024" y="1683.42" width="180" height="80" as="geometry"/>
                </mxCell>
                <mxCell id="154" value="" style="strokeWidth=2;html=1;shape=mxgraph.flowchart.annotation_2;align=left;labelPosition=right;pointerEvents=1;rotation=90;" vertex="1" parent="1">
                    <mxGeometry x="2800.25" y="1373.42" width="52.5" height="560" as="geometry"/>
                </mxCell>
                <mxCell id="155" value="&amp;nbsp;If(Guess3 &amp;lt; Guess2)&lt;br&gt;Print(&quot;num no válido, empieza de nuevo)&lt;br&gt;Break" style="whiteSpace=wrap;html=1;" vertex="1" parent="1">
                    <mxGeometry x="2674" y="1717.17" width="120" height="60" as="geometry"/>
                </mxCell>
                <mxCell id="156" value="&lt;span&gt;&amp;nbsp;If(99&amp;lt;Guess3)&lt;/span&gt;&lt;br&gt;&lt;span&gt;Print(&quot;num no válido, empieza de nuevo)&lt;br&gt;Break&lt;br&gt;&lt;/span&gt;" style="rounded=0;whiteSpace=wrap;html=1;" vertex="1" parent="1">
                    <mxGeometry x="2844" y="1717.17" width="120" height="60" as="geometry"/>
                </mxCell>
                <mxCell id="157" value="If(Guess3 != int)&lt;br&gt;Print(&quot;num no válido, empieza de nuevo&quot;)&lt;br&gt;Break" style="rounded=1;whiteSpace=wrap;html=1;" vertex="1" parent="1">
                    <mxGeometry x="2474" y="1683.42" width="150" height="80" as="geometry"/>
                </mxCell>
                <mxCell id="158" value="" style="strokeWidth=2;html=1;shape=mxgraph.flowchart.annotation_1;align=left;pointerEvents=1;rotation=90;" vertex="1" parent="1">
                    <mxGeometry x="2795.25" y="1590.92" width="50" height="172.5" as="geometry"/>
                </mxCell>
                <mxCell id="159" value="" style="strokeWidth=2;html=1;shape=mxgraph.flowchart.annotation_2;align=left;labelPosition=right;pointerEvents=1;rotation=90;" vertex="1" parent="1">
                    <mxGeometry x="3096.5" y="1697.5" width="50" height="185" as="geometry"/>
                </mxCell>
                <mxCell id="160" value="If(Guess3 = num)&lt;br&gt;Print(&quot;Ganastes&quot;)" style="rounded=1;whiteSpace=wrap;html=1;" vertex="1" parent="1">
                    <mxGeometry x="2964" y="1822.5" width="120" height="60" as="geometry"/>
                </mxCell>
                <mxCell id="161" value="Else&lt;br&gt;Print(&quot;Perdistes, el numero era&quot; num)" style="rounded=1;whiteSpace=wrap;html=1;" vertex="1" parent="1">
                    <mxGeometry x="3150" y="1822.5" width="120" height="60" as="geometry"/>
                </mxCell>
                <mxCell id="192" value="" style="strokeWidth=2;html=1;shape=mxgraph.flowchart.annotation_2;align=left;labelPosition=right;pointerEvents=1;rotation=90;" vertex="1" parent="1">
                    <mxGeometry x="619.5" y="1697.5" width="50" height="185" as="geometry"/>
                </mxCell>
                <mxCell id="193" value="If(Guess3 = num)&lt;br&gt;Print(&quot;Ganastes&quot;)" style="rounded=1;whiteSpace=wrap;html=1;" vertex="1" parent="1">
                    <mxGeometry x="487" y="1822.5" width="120" height="60" as="geometry"/>
                </mxCell>
                <mxCell id="194" value="Else&lt;br&gt;Print(&quot;Perdistes, el numero era&quot; num)" style="rounded=1;whiteSpace=wrap;html=1;" vertex="1" parent="1">
                    <mxGeometry x="673" y="1822.5" width="120" height="60" as="geometry"/>
                </mxCell>
                <mxCell id="195" value="" style="strokeWidth=2;html=1;shape=mxgraph.flowchart.annotation_2;align=left;labelPosition=right;pointerEvents=1;rotation=90;" vertex="1" parent="1">
                    <mxGeometry x="2252.5" y="1717.17" width="50" height="185" as="geometry"/>
                </mxCell>
                <mxCell id="196" value="If(Guess3 = num)&lt;br&gt;Print(&quot;Ganastes&quot;)" style="rounded=1;whiteSpace=wrap;html=1;" vertex="1" parent="1">
                    <mxGeometry x="2120" y="1842.17" width="120" height="60" as="geometry"/>
                </mxCell>
                <mxCell id="197" value="Else&lt;br&gt;Print(&quot;Perdistes, el numero era&quot; num)" style="rounded=1;whiteSpace=wrap;html=1;" vertex="1" parent="1">
                    <mxGeometry x="2306" y="1842.17" width="120" height="60" as="geometry"/>
                </mxCell>
                <mxCell id="198" value="" style="strokeWidth=2;html=1;shape=mxgraph.flowchart.annotation_2;align=left;labelPosition=right;pointerEvents=1;rotation=90;" vertex="1" parent="1">
                    <mxGeometry x="1442.5" y="1697.5" width="50" height="185" as="geometry"/>
                </mxCell>
                <mxCell id="199" value="If(Guess3 = num)&lt;br&gt;Print(&quot;Ganastes&quot;)" style="rounded=1;whiteSpace=wrap;html=1;" vertex="1" parent="1">
                    <mxGeometry x="1310" y="1822.5" width="120" height="60" as="geometry"/>
                </mxCell>
                <mxCell id="200" value="Else&lt;br&gt;Print(&quot;Perdistes, el numero era&quot; num)" style="rounded=1;whiteSpace=wrap;html=1;" vertex="1" parent="1">
                    <mxGeometry x="1496" y="1822.5" width="120" height="60" as="geometry"/>
                </mxCell>
            </root>
        </mxGraphModel>
    </diagram>
</mxfile>
